<?xml version="1.0" standalone="no"?>
<!DOCTYPE svg PUBLIC "-//W3C//DTD SVG 20010904//EN"
 "http://www.w3.org/TR/2001/REC-SVG-20010904/DTD/svg10.dtd">
<svg version="1.0" xmlns="http://www.w3.org/2000/svg"
 width="2072.000000pt" height="2072.000000pt" viewBox="0 0 2072.000000 2072.000000"
 preserveAspectRatio="xMidYMid meet">
<metadata>
Created by potrace 1.14, written by Peter Selinger 2001-2017
</metadata>
<g transform="translate(0.000000,2072.000000) scale(0.100000,-0.100000)"
fill="#000000" stroke="none">
<path d="M3325 16679 c-386 -40 -780 -202 -1088 -448 -429 -342 -711 -864
-767 -1420 -14 -145 -14 -6309 1 -6452 59 -577 350 -1103 804 -1450 141 -109
343 -223 501 -284 63 -24 72 -31 83 -63 22 -61 130 -272 178 -346 233 -360
568 -641 957 -801 l99 -41 52 -116 c304 -681 951 -1143 1704 -1218 143 -14
11378 -14 11522 0 490 48 943 261 1281 601 338 341 549 789 598 1268 14 143
14 6309 0 6452 -54 536 -319 1045 -720 1381 -172 146 -418 292 -599 359 -50
18 -59 25 -70 57 -7 20 -40 91 -73 157 -108 216 -215 363 -392 541 -209 208
-433 357 -690 459 l-79 31 -52 116 c-304 681 -953 1145 -1704 1218 -127 12
-11426 11 -11546 -1z m11580 -996 c203 -47 373 -137 515 -271 178 -167 283
-352 330 -581 20 -100 20 -115 17 -3278 l-2 -3178 -22 -81 c-30 -111 -90 -246
-148 -335 -27 -41 -96 -121 -154 -179 -156 -154 -315 -242 -536 -294 l-90 -21
-5630 -3 c-3899 -2 -5664 0 -5742 8 -492 46 -881 398 -980 887 -17 84 -18 248
-18 3228 0 2980 1 3144 18 3228 99 486 491 843 975 887 48 4 2627 7 5732 6
l5645 -1 90 -22z m1911 -1655 c55 -75 118 -197 150 -292 57 -168 54 47 54
-3376 0 -2767 -2 -3157 -15 -3227 -86 -455 -444 -804 -899 -878 -137 -22
-11354 -23 -11491 0 -158 26 -300 82 -440 174 l-70 46 5405 5 5405 6 115 22
c444 86 815 278 1112 575 320 319 514 702 594 1167 18 99 19 263 21 2973 2
1577 6 2867 8 2867 3 0 26 -28 51 -62z m1255 -1230 c92 -132 153 -274 186
-435 17 -84 18 -248 18 -3228 0 -2980 -1 -3144 -18 -3228 -91 -449 -425 -783
-874 -874 -84 -17 -345 -18 -5768 -18 -4625 0 -5693 2 -5750 13 -163 30 -302
85 -428 169 l-72 48 5375 5 c5098 5 5380 6 5480 23 251 43 452 107 650 208
534 272 931 768 1074 1341 64 257 59 6 63 3171 2 1582 5 2877 8 2877 2 0 28
-33 56 -72z"/>
<path d="M3790 15225 c-226 -47 -431 -182 -561 -372 -49 -71 -107 -203 -131
-299 l-23 -89 0 -2880 0 -2880 23 -89 c24 -96 82 -228 131 -299 111 -162 281
-287 481 -354 l85 -28 1800 -2 1800 -3 -140 74 c-530 277 -1004 676 -1357
1142 -538 710 -818 1546 -818 2439 0 982 340 1896 982 2640 343 397 773 729
1273 984 l60 30 -1770 0 c-1435 -1 -1782 -3 -1835 -14z"/>
<path d="M10950 15174 c568 -300 1018 -682 1396 -1188 332 -442 577 -977 698
-1521 35 -161 76 -412 76 -472 0 -18 5 -33 10 -33 6 0 10 -132 10 -375 0 -206
-4 -375 -9 -375 -4 0 -11 -35 -15 -77 -29 -317 -147 -773 -285 -1102 -371
-882 -1020 -1583 -1885 -2037 l-121 -64 1767 0 c1524 0 1776 2 1837 15 295 62
545 273 651 547 64 166 60 -44 60 3094 0 2576 -2 2873 -16 2942 -72 351 -344
624 -696 696 -69 14 -268 16 -1840 16 l-1763 0 125 -66z"/>
<path d="M8118 14091 c-144 -46 -251 -157 -293 -305 -16 -55 -17 -123 -10
-850 7 -851 9 -875 60 -977 15 -29 53 -78 84 -109 217 -217 576 -152 710 129
l36 76 -3 760 c-4 881 -7 947 -50 1039 -94 200 -326 303 -534 237z"/>
<path d="M10158 14091 c-144 -46 -251 -157 -293 -305 -16 -55 -17 -122 -11
-840 4 -430 12 -810 17 -846 14 -94 58 -181 126 -249 220 -218 577 -154 712
128 l36 76 -3 760 c-4 881 -7 947 -50 1039 -94 200 -326 303 -534 237z"/>
<path d="M7249 10801 c-214 -68 -349 -251 -349 -472 0 -129 48 -242 198 -471
279 -422 667 -752 1121 -953 969 -429 2211 -280 3078 369 283 212 374 357 360
571 -16 244 -208 437 -452 452 -152 10 -260 -31 -391 -148 -112 -100 -277
-207 -434 -283 -216 -103 -405 -160 -660 -197 -126 -19 -174 -21 -370 -16
-191 4 -244 9 -350 32 -388 81 -694 254 -937 528 -71 79 -182 239 -233 336
-66 123 -171 212 -298 251 -82 25 -205 26 -283 1z"/>
</g>
</svg>
