<?xml version="1.0" encoding="UTF-8" standalone="no"?>
<svg
   version="1.1"
   width="500"
   height="500"
   viewBox="0 0 500 500"
   xml:space="preserve"
   id="svg1"
   sodipodi:docname="x.svg"
   inkscape:version="1.1.2 (0a00cf5339, 2022-02-04)"
   xmlns:inkscape="http://www.inkscape.org/namespaces/inkscape"
   xmlns:sodipodi="http://sodipodi.sourceforge.net/DTD/sodipodi-0.dtd"
   xmlns="http://www.w3.org/2000/svg"
   xmlns:svg="http://www.w3.org/2000/svg"><defs
   id="defs1"><inkscape:path-effect
     effect="fillet_chamfer"
     id="path-effect1"
     is_visible="true"
     lpeversion="1"
     nodesatellites_param="F,0,0,1,0,29.727257,0,1 @ F,0,0,1,0,29.727257,0,1 @ F,0,0,1,0,29.962095,0,1 @ F,0,0,1,0,28.828774,0,1 @ F,0,0,1,0,29.727257,0,1 @ F,0,0,1,0,35.352998,0,1 @ F,0,0,1,0,35.352998,0,1 @ F,0,0,1,0,29.727257,0,1 @ F,0,0,1,0,31.759063,0,1 @ F,0,0,1,0,30.625741,0,1 @ F,0,0,1,0,32.422709,0,1 @ F,0,0,1,0,32.657547,0,1"
     radius="0"
     unit="px"
     method="auto"
     mode="F"
     chamfer_steps="1"
     flexible="false"
     use_knot_distance="true"
     apply_no_radius="true"
     apply_with_radius="true"
     only_selected="false"
     hide_knots="false" /></defs><sodipodi:namedview
   id="namedview1"
   pagecolor="#ffffff"
   bordercolor="#000000"
   borderopacity="0.25"
   inkscape:showpageshadow="2"
   inkscape:pageopacity="0.0"
   inkscape:pagecheckerboard="0"
   inkscape:deskcolor="#d1d1d1"
   inkscape:zoom="0.8706073"
   inkscape:cx="130.36877"
   inkscape:cy="229.7247"
   inkscape:window-width="1920"
   inkscape:window-height="1016"
   inkscape:window-x="0"
   inkscape:window-y="0"
   inkscape:window-maximized="1"
   inkscape:current-layer="svg1"
   inkscape:pageshadow="2"
   showgrid="false" />

<path
   id="rect2"
   style="fill:#7f7f7f;fill-opacity:1;stroke:#7f7f7f;stroke-width:14.83931654;stroke-linejoin:round;stroke-dasharray:none;stroke-opacity:1"
   d="M 212.5,79.727257 V 182.77274 A 29.727257,29.727257 135 0 1 182.77274,212.5 H 79.962095 A 29.962095,29.962095 135 0 0 50,242.46209 v 16.20914 A 28.828774,28.828774 45 0 0 78.828774,287.5 H 182.77274 A 29.727257,29.727257 45 0 1 212.5,317.22726 V 414.647 A 35.352998,35.352998 45 0 0 247.853,450 h 4.294 A 35.352998,35.352998 135 0 0 287.5,414.647 V 317.22726 A 29.727257,29.727257 135 0 1 317.22726,287.5 H 418.24094 A 31.759063,31.759063 135 0 0 450,255.74094 v -12.6152 A 30.625741,30.625741 45 0 0 419.37426,212.5 H 319.92271 A 32.422709,32.422709 45 0 1 287.5,180.07729 V 82.657547 A 32.657547,32.657547 45 0 0 254.84245,50 H 242.22726 A 29.727257,29.727257 135 0 0 212.5,79.727257 Z"
   inkscape:path-effect="#path-effect1"
   inkscape:original-d="m 212.5,50 c 0,54.16667 0,108.33333 0,162.5 -54.16667,0 -108.33333,0 -162.5,0 0,25 0,50 0,75 54.16667,0 108.33333,0 162.5,0 0,54.16667 0,108.33333 0,162.5 25,0 50,0 75,0 0,-54.16667 0,-108.33333 0,-162.5 54.16667,0 108.33333,0 162.5,0 0,-25 0,-50 0,-75 -54.16667,0 -108.33333,0 -162.5,0 0,-54.16667 0,-108.33333 0,-162.5 -25,0 -50,0 -75,0 z"
   transform="matrix(0.95301799,0.95301799,-0.95301799,0.95301799,250.12943,-226.36265)" /></svg>
