<?xml version="1.0" encoding="UTF-8" standalone="no"?>
<svg
   version="1.1"
   width="500"
   height="500"
   viewBox="0 0 500 500"
   xml:space="preserve"
   id="svg1"
   sodipodi:docname="EditProject.svg"
   inkscape:version="1.1.2 (0a00cf5339, 2022-02-04)"
   xmlns:inkscape="http://www.inkscape.org/namespaces/inkscape"
   xmlns:sodipodi="http://sodipodi.sourceforge.net/DTD/sodipodi-0.dtd"
   xmlns="http://www.w3.org/2000/svg"
   xmlns:svg="http://www.w3.org/2000/svg"><defs
   id="defs1"><inkscape:perspective
     sodipodi:type="inkscape:persp3d"
     inkscape:vp_x="0 : 250 : 1"
     inkscape:vp_y="0 : 1000 : 0"
     inkscape:vp_z="500 : 250 : 1"
     inkscape:persp3d-origin="250 : 166.66667 : 1"
     id="perspective2451" /></defs><sodipodi:namedview
   id="namedview1"
   pagecolor="#ffffff"
   bordercolor="#000000"
   borderopacity="0.25"
   inkscape:showpageshadow="2"
   inkscape:pageopacity="0.0"
   inkscape:pagecheckerboard="0"
   inkscape:deskcolor="#d1d1d1"
   inkscape:zoom="0.50686121"
   inkscape:cx="634.29592"
   inkscape:cy="-59.1878"
   inkscape:window-width="1920"
   inkscape:window-height="1016"
   inkscape:window-x="0"
   inkscape:window-y="0"
   inkscape:window-maximized="1"
   inkscape:current-layer="g450"
   inkscape:pageshadow="2"
   showgrid="false" />

<g
   id="path8"><g
     id="g450"
     transform="matrix(0.74758155,-0.74758155,0.74758155,0.74758155,-97.421894,333.65706)"><path
       id="path6441"
       style="fill:#999999;fill-opacity:1;fill-rule:evenodd;stroke:#999999;stroke-width:16;stroke-linecap:round;stroke-linejoin:round;stroke-miterlimit:4;stroke-dasharray:none;stroke-opacity:1;paint-order:normal"
       d="m 17.952845,227.20519 c 1.500959,1.5143 3.082467,2.95915 4.743973,4.32689 28.612209,26.37933 78.866772,22.5738 103.109152,-7.89832 h 325.08405 c 24.71653,31.76754 75.69756,33.04747 104.64628,7.12354 -19.38857,-0.26495 -38.77596,-0.58337 -58.1623,-0.98056 -10.06725,-17.95605 -20.05795,-35.95311 -29.97193,-53.99423 10.52815,-17.68999 21.11969,-35.34233 31.77562,-52.95567 19.22863,0.24242 38.4556,0.57688 57.68167,0.97227 -8.17833,-8.20926 -18.35874,-14.39083 -30.16251,-17.29373 -26.81468,-7.751166 -58.0628,1.11228 -75.83997,22.88706 -108.3503,-1e-5 -216.70062,0 -325.05091,-1e-5 C 96.612032,91.782255 30.788289,97.012801 7.9028152,138.86794 -8.9153773,166.17471 -4.5615024,204.49074 17.952845,227.20519 Z m 7.887285,-19.12917 c -1.328481,-17.80396 -2.579691,-35.61338 -3.756507,-53.42799 14.760988,-10.04318 29.556976,-20.03311 44.39028,-29.96918 16.082932,7.75147 32.13323,15.57342 48.149557,23.46158 1.32848,17.80395 2.58106,35.61199 3.75789,53.42662 -14.75445,10.05248 -29.550787,20.04268 -44.390293,29.96917 -16.078009,-7.76173 -32.129563,-15.58224 -48.150927,-23.4602 z" /><path
       id="path12565"
       style="fill:#7f7f7f;fill-opacity:1;fill-rule:evenodd;stroke:#7f7f7f;stroke-width:16;stroke-linecap:round;stroke-linejoin:round;stroke-miterlimit:4;stroke-dasharray:none;stroke-opacity:1;paint-order:normal"
       d="m 17.952845,227.20519 c 1.500959,1.5143 3.082467,2.95915 4.743973,4.32689 28.612209,26.37933 78.866772,22.5738 103.109152,-7.89832 h 325.08405 c 24.71653,31.76754 75.69756,33.04747 104.64628,7.12354 -19.38857,-0.26495 -38.77596,-0.58337 -58.1623,-0.98056 -10.06725,-17.95605 -20.05795,-35.95311 -29.97193,-53.99423 10.52815,-17.68999 21.11969,-35.34233 31.77562,-52.95567 19.22863,0.24242 38.4556,0.57688 57.68167,0.97227 -8.17833,-8.20926 -18.35874,-14.39083 -30.16251,-17.29373 -26.81468,-7.751166 -58.0628,1.11228 -75.83997,22.88706 -108.3503,-1e-5 -216.70062,0 -325.05091,-1e-5 C 96.612032,91.782255 30.788289,97.012801 7.9028152,138.86794 -8.9153773,166.17471 -4.5615024,204.49074 17.952845,227.20519 Z m 7.887285,-19.12917 c -1.328481,-17.80396 -2.579691,-35.61338 -3.756507,-53.42799 14.760988,-10.04318 29.556976,-20.03311 44.39028,-29.96918 16.082932,7.75147 32.13323,15.57342 48.149557,23.46158 1.32848,17.80395 2.58106,35.61199 3.75789,53.42662 -14.75445,10.05248 -29.550787,20.04268 -44.390293,29.96917 -16.078009,-7.76173 -32.129563,-15.58224 -48.150927,-23.4602 z" /><g
       id="g17178"
       transform="matrix(-1.0630562,-1.0630562,1.0630562,-1.0630562,407.27546,1413.2236)"><path
         id="rect12696"
         style="fill:#7f7f7f;stroke:#7f7f7f;stroke-width:0;stroke-linecap:round;stroke-linejoin:round;fill-opacity:1;stroke-opacity:1"
         d="M 610.08781,484.16713 772.44438,646.52371 794.36854,682.46495 758.42729,660.5408 596.07071,498.18422 Z"
         sodipodi:nodetypes="cccccc" /><path
         id="rect13238"
         style="fill:#7f7f7f;stroke:#7f7f7f;stroke-width:0;stroke-linecap:round;stroke-linejoin:round;fill-opacity:1;stroke-opacity:1"
         transform="rotate(45)"
         d="m 717.33277,-124.34138 c 59.27645,0 106.9972,10.77867 106.9972,24.16741 v 42.092362 c 0,13.388744 -47.72075,24.167408 -106.9972,24.167408 -51.18425,-15.395135 -103.39861,-42.832356 0,-90.42718 z"
         sodipodi:nodetypes="csscc" /><rect
         style="fill:#7f7f7f;fill-opacity:1.0;stroke:#7f7f7f;stroke-width:0;stroke-linecap:round;stroke-linejoin:round;stroke-miterlimit:4;stroke-dasharray:none;stroke-opacity:1;paint-order:normal"
         id="rect13422"
         width="213.9944"
         height="90.427177"
         x="610.33557"
         y="-124.34138"
         transform="rotate(45)"
         ry="45.213589"
         rx="106.9972" /></g></g></g></svg>
