<?xml version="1.0" encoding="UTF-8" standalone="no"?>
<svg
   version="1.1"
   width="500"
   height="500"
   viewBox="0 0 500 500"
   xml:space="preserve"
   id="svg1"
   sodipodi:docname="Projects.svg"
   inkscape:version="1.3 (0e150ed6c4, 2023-07-21)"
   xmlns:inkscape="http://www.inkscape.org/namespaces/inkscape"
   xmlns:sodipodi="http://sodipodi.sourceforge.net/DTD/sodipodi-0.dtd"
   xmlns="http://www.w3.org/2000/svg"
   xmlns:svg="http://www.w3.org/2000/svg"><defs
   id="defs1" /><sodipodi:namedview
   id="namedview1"
   pagecolor="#ffffff"
   bordercolor="#000000"
   borderopacity="0.25"
   inkscape:showpageshadow="2"
   inkscape:pageopacity="0.0"
   inkscape:pagecheckerboard="0"
   inkscape:deskcolor="#d1d1d1"
   inkscape:zoom="0.78700002"
   inkscape:cx="199.49174"
   inkscape:cy="328.46251"
   inkscape:window-width="1920"
   inkscape:window-height="1001"
   inkscape:window-x="-9"
   inkscape:window-y="-9"
   inkscape:window-maximized="1"
   inkscape:current-layer="svg1" />&#10;&#10;<path
   style="fill:#808080;stroke-width:1.03478"
   id="path2"
   sodipodi:type="arc"
   sodipodi:cx="88.557182"
   sodipodi:cy="119.53218"
   sodipodi:rx="88.557182"
   sodipodi:ry="88.557182"
   sodipodi:start="0"
   sodipodi:end="6.2804554"
   sodipodi:open="true"
   sodipodi:arc-type="arc"
   d="M 177.11436,119.53218 A 88.557182,88.557182 0 0 1 88.617621,208.08934 88.557182,88.557182 0 0 1 8.2495355e-5,119.65306 88.557182,88.557182 0 0 1 88.375868,30.975184 88.557182,88.557182 0 0 1 177.11403,119.29043" /><path
   style="fill:#808080;stroke-width:1.03478"
   id="path2-9"
   sodipodi:type="arc"
   sodipodi:cx="88.557182"
   sodipodi:cy="380.46793"
   sodipodi:rx="88.557182"
   sodipodi:ry="88.557182"
   sodipodi:start="0"
   sodipodi:end="6.2804554"
   sodipodi:open="true"
   sodipodi:arc-type="arc"
   d="M 177.11436,380.46793 A 88.557182,88.557182 0 0 1 88.617621,469.02509 88.557182,88.557182 0 0 1 8.2495355e-5,380.5888 88.557182,88.557182 0 0 1 88.375868,291.91093 88.557182,88.557182 0 0 1 177.11403,380.22617" /><rect
   style="fill:#808080;stroke-width:0.750862"
   id="rect2"
   width="275"
   height="61.174"
   x="225"
   y="88.945183" /><rect
   style="fill:#808080;stroke-width:0.750866"
   id="rect3"
   width="275"
   height="61.174461"
   x="225"
   y="349.88071" /></svg>
