<?xml version="1.0" encoding="UTF-8" standalone="no"?>
<svg
   version="1.1"
   width="500"
   height="500"
   viewBox="0 0 500 500"
   xml:space="preserve"
   id="svg1"
   sodipodi:docname="Settings.svg"
   inkscape:version="1.3 (0e150ed6c4, 2023-07-21)"
   xmlns:inkscape="http://www.inkscape.org/namespaces/inkscape"
   xmlns:sodipodi="http://sodipodi.sourceforge.net/DTD/sodipodi-0.dtd"
   xmlns="http://www.w3.org/2000/svg"
   xmlns:svg="http://www.w3.org/2000/svg"><defs
   id="defs1" /><sodipodi:namedview
   id="namedview1"
   pagecolor="#ffffff"
   bordercolor="#000000"
   borderopacity="0.25"
   inkscape:showpageshadow="2"
   inkscape:pageopacity="0.0"
   inkscape:pagecheckerboard="0"
   inkscape:deskcolor="#d1d1d1"
   inkscape:zoom="1.1129861"
   inkscape:cx="224.62095"
   inkscape:cy="251.12623"
   inkscape:window-width="1920"
   inkscape:window-height="1001"
   inkscape:window-x="-9"
   inkscape:window-y="-9"
   inkscape:window-maximized="1"
   inkscape:current-layer="svg1" />&#10;&#10;<path
   id="path3"
   style="fill:#999999;stroke-width:5.44375"
   d="m 213.84711,498.43175 c -9.69089,-1.41041 -8.28626,-50.43137 -17.31231,-52.91201 -9.02606,-2.48064 -43.33753,-17.24436 -51.34429,-22.09268 -8.00676,-4.84832 -40.19004,31.09318 -48.560594,24.61423 -8.37055,-6.47895 -38.26045,-36.346 -44.74533,-44.71116 -6.48489,-8.36514 29.47023,-40.5237 24.61443,-48.53414 -4.85577,-8.01044 -19.64062,-42.3408 -22.12422,-51.37236 -2.4836,-9.03156 -50.7179212,-2.85096 -52.8378142,-17.28194 -2.11989197,-14.43097 -1.68921297,-54.6522 -0.82813497,-61.60965 0.86107897,-6.95744 49.11098917,-6.68807 51.26580917,-16.76776 2.15484,-10.07969 16.74316,-48.51591 21.81914,-57.48743 5.07599,-8.97152 -30.77466,-41.47929 -25.02415,-49.34756 5.75051,-7.868276 32.20645,-36.410946 39.61674,-42.741539 7.41028,-6.330594 38.019284,30.81315 47.776034,24.21625 9.75673,-6.5969 52.59589,-25.772697 64.01613,-28.655121 11.42025,-2.882424 4.72106,-50.6833831 17.14091,-52.3861831 12.41984,-1.70280999 46.98733,-1.63805999 54.67714,-0.74368999 7.68984,0.89437999 3.99436,48.33802909 16.59465,50.71580509 12.60028,2.377776 60.10442,21.102031 70.93761,27.960807 10.83319,6.858775 40.85515,-29.806867 47.77892,-24.219142 6.92379,5.587738 32.05703,30.712855 37.64667,37.634509 5.58963,6.921654 -31.0787,36.926354 -24.21928,47.758524 6.85944,10.83218 25.58245,58.33052 27.95895,70.92894 2.3765,12.59842 49.61859,6.97808 50.73406,16.59349 1.11548,9.6154 0.4641,45.6054 -0.79596,54.68115 -1.26005,9.07574 -49.50066,5.70792 -52.37581,17.12799 -2.87513,11.42006 -22.02648,54.26431 -28.61854,64.02373 -6.59206,9.75942 30.50909,40.26643 24.1815,47.68297 -6.32757,7.41653 -34.86385,33.89899 -42.7319,39.65641 -7.86805,5.7574 -40.36596,-30.08612 -49.3422,-25.01222 -8.97624,5.07391 -47.43164,19.65284 -57.51606,21.80508 -10.08442,2.15222 -4.79679,49.82458 -16.7806,51.2852 -11.98381,1.46063 -51.91061,0.5999 -61.6015,-0.8105 z m 35.92648,-167.10249 c 44.8823,0.0914 81.34939,-36.19329 81.41032,-81.17494 0.0609,-44.98166 -36.30725,-81.36521 -81.1895,-81.39573 -44.88225,-0.0305 -81.29942,36.30367 -81.36046,81.17494 -0.061,44.87126 36.25735,81.30423 81.13964,81.39573 z"
   sodipodi:nodetypes="zzzzzzzzzzzzzzzzzzzzzzzzzzzzzzzzzzzzzz" /></svg>
